<svg width="61" height="55" viewBox="0 0 61 55" fill="none" xmlns="http://www.w3.org/2000/svg">
<mask id="path-1-inside-1_0_359" fill="white">
<path d="M18.7677 21.6703L18.8673 21.7426L18.629 22.0737C18.1505 22.7362 18.6235 23.6616 19.4415 23.6616L24.6964 23.6586C25.638 23.6587 26.1745 24.7335 25.6085 25.4858L1.76961 54.3471C1.20349 55.0326 0.120762 54.3669 0.476645 53.5522L8.33993 35.5483C8.62901 34.8858 8.1437 34.145 7.42098 34.145L2.30379 34.1489C0.569589 34.1497 -0.541695 32.3037 0.271567 30.7719L15.3106 2.44672L15.3097 2.44379C15.9185 1.2962 17.1125 0.578552 18.4112 0.578552L34.0284 0.574646L18.7677 21.6703ZM55.8682 0.569763C59.4752 0.568668 61.5101 4.71222 59.3038 7.56586L47.8888 22.3305C46.9887 23.4953 45.6004 24.1761 44.129 24.1762H33.7413C32.9266 24.1762 32.4538 23.2557 32.9268 22.5932L38.3292 15.0297C38.8033 14.3672 38.3294 13.4458 37.5147 13.4457H28.8233L38.1339 0.57367L55.8682 0.569763Z"/>
</mask>
<path d="M18.7677 21.6703L18.8673 21.7426L18.629 22.0737C18.1505 22.7362 18.6235 23.6616 19.4415 23.6616L24.6964 23.6586C25.638 23.6587 26.1745 24.7335 25.6085 25.4858L1.76961 54.3471C1.20349 55.0326 0.120762 54.3669 0.476645 53.5522L8.33993 35.5483C8.62901 34.8858 8.1437 34.145 7.42098 34.145L2.30379 34.1489C0.569589 34.1497 -0.541695 32.3037 0.271567 30.7719L15.3106 2.44672L15.3097 2.44379C15.9185 1.2962 17.1125 0.578552 18.4112 0.578552L34.0284 0.574646L18.7677 21.6703ZM55.8682 0.569763C59.4752 0.568668 61.5101 4.71222 59.3038 7.56586L47.8888 22.3305C46.9887 23.4953 45.6004 24.1761 44.129 24.1762H33.7413C32.9266 24.1762 32.4538 23.2557 32.9268 22.5932L38.3292 15.0297C38.8033 14.3672 38.3294 13.4458 37.5147 13.4457H28.8233L38.1339 0.57367L55.8682 0.569763Z" fill="#78BCDB"/>
<path d="M18.7677 21.6703L18.6789 21.6062L18.6148 21.6948L18.7034 21.759L18.7677 21.6703ZM18.8673 21.7426L18.9561 21.8066L19.0199 21.718L18.9316 21.654L18.8673 21.7426ZM18.629 22.0737L18.7178 22.1378L18.7179 22.1376L18.629 22.0737ZM19.4415 23.6616V23.7711H19.4415L19.4415 23.6616ZM24.6964 23.6586L24.6964 23.5491H24.6963L24.6964 23.6586ZM25.6085 25.4858L25.693 25.5556L25.696 25.5516L25.6085 25.4858ZM1.76961 54.3471L1.68519 54.2774L1.68518 54.2774L1.76961 54.3471ZM0.476645 53.5522L0.576991 53.596L0.576994 53.596L0.476645 53.5522ZM8.33993 35.5483L8.44028 35.5921L8.44029 35.5921L8.33993 35.5483ZM7.42098 34.145V34.0355H7.4209L7.42098 34.145ZM2.30379 34.1489L2.30385 34.2584H2.30388L2.30379 34.1489ZM0.271567 30.7719L0.174851 30.7206H0.17485L0.271567 30.7719ZM15.3106 2.44672L15.4073 2.49807L15.4294 2.45661L15.4145 2.41209L15.3106 2.44672ZM15.3097 2.44379L15.2129 2.39247L15.1909 2.43391L15.2058 2.47841L15.3097 2.44379ZM18.4112 0.578552V0.688055L18.4112 0.688055L18.4112 0.578552ZM34.0284 0.574646L34.1171 0.638828L34.2428 0.46509L34.0284 0.465144L34.0284 0.574646ZM55.8682 0.569763L55.8683 0.679266L55.8683 0.679266L55.8682 0.569763ZM59.3038 7.56586L59.2172 7.49888V7.49888L59.3038 7.56586ZM47.8888 22.3305L47.8021 22.2635L47.8021 22.2636L47.8888 22.3305ZM44.129 24.1762V24.2857H44.129L44.129 24.1762ZM32.9268 22.5932L32.8377 22.5296L32.8377 22.5296L32.9268 22.5932ZM38.3292 15.0297L38.2401 14.966L38.2401 14.9661L38.3292 15.0297ZM37.5147 13.4457V13.3362V13.4457ZM28.8233 13.4457L28.7346 13.3816L28.609 13.5552H28.8233V13.4457ZM38.1339 0.57367L38.1338 0.464167L38.0779 0.464179L38.0451 0.509493L38.1339 0.57367ZM18.7677 21.6703L18.7034 21.759L18.803 21.8312L18.8673 21.7426L18.9316 21.654L18.832 21.5817L18.7677 21.6703ZM18.8673 21.7426L18.7784 21.6786L18.5401 22.0097L18.629 22.0737L18.7179 22.1376L18.9561 21.8066L18.8673 21.7426ZM18.629 22.0737L18.5402 22.0096C18.0094 22.7445 18.5342 23.7711 19.4415 23.7711V23.6616V23.5521C18.7128 23.5521 18.2916 22.7278 18.7178 22.1378L18.629 22.0737ZM19.4415 23.6616L19.4415 23.7711L24.6964 23.7681L24.6964 23.6586L24.6963 23.5491L19.4414 23.5521L19.4415 23.6616ZM24.6964 23.6586L24.6964 23.7681C25.5477 23.7682 26.0326 24.7399 25.521 25.4199L25.6085 25.4858L25.696 25.5516C26.3163 24.7272 25.7283 23.5492 24.6964 23.5491L24.6964 23.6586ZM25.6085 25.4858L25.5241 25.416L1.68519 54.2774L1.76961 54.3471L1.85404 54.4168L25.6929 25.5555L25.6085 25.4858ZM1.76961 54.3471L1.68518 54.2774C1.20002 54.8648 0.271865 54.2945 0.576991 53.596L0.476645 53.5522L0.376299 53.5084C-0.0303418 54.4392 1.20696 55.2004 1.85404 54.4168L1.76961 54.3471ZM0.476645 53.5522L0.576994 53.596L8.44028 35.5921L8.33993 35.5483L8.23958 35.5045L0.376296 53.5084L0.476645 53.5522ZM8.33993 35.5483L8.44029 35.5921C8.76096 34.8572 8.22258 34.0355 7.42098 34.0355V34.145V34.2545C8.06482 34.2545 8.49707 34.9144 8.23956 35.5045L8.33993 35.5483ZM7.42098 34.145L7.4209 34.0355L2.30371 34.0394L2.30379 34.1489L2.30388 34.2584L7.42106 34.2545L7.42098 34.145ZM2.30379 34.1489L2.30374 34.0394C0.652081 34.0402 -0.40622 32.282 0.368283 30.8233L0.271567 30.7719L0.17485 30.7206C-0.67717 32.3253 0.487097 34.2592 2.30385 34.2584L2.30379 34.1489ZM0.271567 30.7719L0.368282 30.8233L15.4073 2.49807L15.3106 2.44672L15.2139 2.39537L0.174851 30.7206L0.271567 30.7719ZM15.3106 2.44672L15.4145 2.41209L15.4135 2.40916L15.3097 2.44379L15.2058 2.47841L15.2067 2.48134L15.3106 2.44672ZM15.3097 2.44379L15.4064 2.49511C15.9962 1.38334 17.153 0.688055 18.4112 0.688055V0.578552V0.46905C17.072 0.46905 15.8408 1.20906 15.2129 2.39247L15.3097 2.44379ZM18.4112 0.578552L18.4112 0.688055L34.0284 0.684149L34.0284 0.574646L34.0284 0.465144L18.4112 0.46905L18.4112 0.578552ZM34.0284 0.574646L33.9397 0.510465L18.6789 21.6062L18.7677 21.6703L18.8564 21.7345L34.1171 0.638828L34.0284 0.574646ZM55.8682 0.569763L55.8683 0.679266C59.3842 0.678199 61.3678 4.71723 59.2172 7.49888L59.3038 7.56586L59.3904 7.63284C61.6524 4.70721 59.5662 0.459138 55.8682 0.460261L55.8682 0.569763ZM59.3038 7.56586L59.2172 7.49888L47.8021 22.2635L47.8888 22.3305L47.9754 22.3975L59.3904 7.63283L59.3038 7.56586ZM47.8888 22.3305L47.8021 22.2636C46.9228 23.4015 45.5666 24.0666 44.129 24.0667L44.129 24.1762L44.129 24.2857C45.6343 24.2856 47.0546 23.5891 47.9754 22.3975L47.8888 22.3305ZM44.129 24.1762V24.0667H33.7413V24.1762V24.2857H44.129V24.1762ZM33.7413 24.1762V24.0667C33.0158 24.0667 32.5946 23.247 33.016 22.6568L32.9268 22.5932L32.8377 22.5296C32.3131 23.2644 32.8374 24.2857 33.7413 24.2857V24.1762ZM32.9268 22.5932L33.0159 22.6568L38.4183 15.0934L38.3292 15.0297L38.2401 14.9661L32.8377 22.5296L32.9268 22.5932ZM38.3292 15.0297L38.4182 15.0935C38.9443 14.3585 38.4185 13.3363 37.5147 13.3362V13.4457L37.5147 13.5552C38.2404 13.5553 38.6624 14.376 38.2401 14.966L38.3292 15.0297ZM37.5147 13.4457V13.3362H28.8233V13.4457V13.5552H37.5147V13.4457ZM28.8233 13.4457L28.9121 13.5099L38.2226 0.637846L38.1339 0.57367L38.0451 0.509493L28.7346 13.3816L28.8233 13.4457ZM38.1339 0.57367L38.1339 0.683172L55.8683 0.679266L55.8682 0.569763L55.8682 0.460261L38.1338 0.464167L38.1339 0.57367Z" fill="#18191D" mask="url(#path-1-inside-1_0_359)"/>
</svg>
